<mxfile host="app.diagrams.net" agent="Mozilla/5.0 (X11; Linux x86_64) AppleWebKit/537.36 (KHTML, like Gecko) Chrome/120.0.0.0 Safari/537.36" version="24.7.7">
  <diagram name="Page-1" id="0p1o9D85wg9-GzEIQXPA">
    <mxGraphModel dx="2049" dy="1094" grid="1" gridSize="10" guides="1" tooltips="1" connect="1" arrows="1" fold="1" page="1" pageScale="1" pageWidth="1169" pageHeight="827" math="0" shadow="0">
      <root>
        <mxCell id="0" />
        <mxCell id="1" parent="0" />
        <mxCell id="RO_ATfNDEhmNTfwGVFBN-24" value="" style="rounded=0;whiteSpace=wrap;html=1;fillColor=#E0E0E0;" vertex="1" parent="1">
          <mxGeometry x="170" y="140" width="990" height="890" as="geometry" />
        </mxCell>
        <mxCell id="RO_ATfNDEhmNTfwGVFBN-2" value="" style="rounded=0;whiteSpace=wrap;html=1;" vertex="1" parent="1">
          <mxGeometry x="5" width="1155" height="80" as="geometry" />
        </mxCell>
        <mxCell id="RO_ATfNDEhmNTfwGVFBN-3" value="Navigation" style="rounded=0;whiteSpace=wrap;html=1;" vertex="1" parent="1">
          <mxGeometry x="5" y="80" width="165" height="950" as="geometry" />
        </mxCell>
        <mxCell id="RO_ATfNDEhmNTfwGVFBN-4" value="&lt;font style=&quot;font-size: 22px;&quot;&gt;&amp;lt;Type&amp;gt; &amp;lt;Title&amp;gt;&lt;/font&gt;" style="rounded=0;whiteSpace=wrap;html=1;align=center;" vertex="1" parent="1">
          <mxGeometry x="170" y="80" width="990" height="60" as="geometry" />
        </mxCell>
        <mxCell id="RO_ATfNDEhmNTfwGVFBN-5" value="Metadata ??" style="rounded=0;whiteSpace=wrap;html=1;" vertex="1" parent="1">
          <mxGeometry x="1010" y="150" width="150" height="660" as="geometry" />
        </mxCell>
        <mxCell id="RO_ATfNDEhmNTfwGVFBN-6" value="" style="rounded=0;whiteSpace=wrap;html=1;" vertex="1" parent="1">
          <mxGeometry x="180" y="150" width="820" height="150" as="geometry" />
        </mxCell>
        <mxCell id="RO_ATfNDEhmNTfwGVFBN-7" value="Lorem ipsum dolor sit amet, consectetur adipisicing elit, sed do eiusmod tempor incididunt ut labore et dolore magna aliqua. Ut enim ad minim veniam, quis nostrud exercitation ullamco laboris nisi ut aliquip ex ea commodo consequat. Duis aute irure dolor in reprehenderit in voluptate velit esse cillum dolore eu fugiat nulla pariatur. Excepteur sint occaecat cupidatat non proident, sunt in culpa qui officia deserunt mollit anim id est laborum.&lt;br&gt;Sed ut perspiciatis unde omnis iste natus error sit voluptatem accusantium doloremque laudantium, totam rem aperiam, eaque ipsa quae ab illo inventore veritatis et quasi architecto beatae vitae dicta sunt explicabo. Nemo enim ipsam voluptatem quia voluptas sit aspernatur aut odit aut fugit, sed quia consequuntur magni dolores eos qui ratione voluptatem sequi nesciunt. Neque porro quisquam est, qui dolorem ipsum quia dolor sit amet, consectetur, adipisci velit, sed quia non numquam eius modi tempora incidunt ut labore et dolore magnam aliquam quaerat&amp;nbsp;" style="text;spacingTop=-5;whiteSpace=wrap;html=1;align=left;fontSize=12;fontFamily=Helvetica;fillColor=none;strokeColor=none;" vertex="1" parent="1">
          <mxGeometry x="190" y="170" width="800" height="160" as="geometry" />
        </mxCell>
        <mxCell id="RO_ATfNDEhmNTfwGVFBN-8" value="Related" style="swimlane;strokeColor=#999999;swimlaneFillColor=#FFFFFF;fillColor=#ffffff;fontColor=#008CFF;fontStyle=0;childLayout=stackLayout;horizontal=1;startSize=30;horizontalStack=0;resizeParent=1;resizeParentMax=0;resizeLast=0;collapsible=0;marginBottom=0;whiteSpace=wrap;html=1;fontSize=17;align=left;" vertex="1" parent="1">
          <mxGeometry x="180" y="310" width="770" height="100" as="geometry" />
        </mxCell>
        <mxCell id="RO_ATfNDEhmNTfwGVFBN-9" value="Item 1" style="text;spacing=0;strokeColor=none;align=left;verticalAlign=middle;spacingLeft=7;spacingRight=10;overflow=hidden;points=[[0,0.5],[1,0.5]];portConstraint=eastwest;rotatable=0;whiteSpace=wrap;html=1;fillColor=none;fontColor=#666666;fontSize=17;" vertex="1" parent="RO_ATfNDEhmNTfwGVFBN-8">
          <mxGeometry y="30" width="770" height="20" as="geometry" />
        </mxCell>
        <mxCell id="RO_ATfNDEhmNTfwGVFBN-10" value="Item 2" style="text;spacing=0;strokeColor=none;align=left;verticalAlign=middle;spacingLeft=7;spacingRight=10;overflow=hidden;points=[[0,0.5],[1,0.5]];portConstraint=eastwest;rotatable=0;whiteSpace=wrap;html=1;rSize=5;fillColor=none;fontColor=#666666;fontSize=17;" vertex="1" parent="RO_ATfNDEhmNTfwGVFBN-8">
          <mxGeometry y="50" width="770" height="20" as="geometry" />
        </mxCell>
        <mxCell id="RO_ATfNDEhmNTfwGVFBN-11" value="Item 3" style="text;spacing=0;strokeColor=none;align=left;verticalAlign=middle;spacingLeft=7;spacingRight=10;overflow=hidden;points=[[0,0.5],[1,0.5]];portConstraint=eastwest;rotatable=0;whiteSpace=wrap;html=1;rSize=5;fillColor=#DDEEFF;fontColor=#666666;fontSize=17;" vertex="1" parent="RO_ATfNDEhmNTfwGVFBN-8">
          <mxGeometry y="70" width="770" height="20" as="geometry" />
        </mxCell>
        <mxCell id="RO_ATfNDEhmNTfwGVFBN-13" value="" style="text;spacing=0;strokeColor=none;align=left;verticalAlign=middle;spacingLeft=7;spacingRight=10;overflow=hidden;points=[[0,0.5],[1,0.5]];portConstraint=eastwest;rotatable=0;whiteSpace=wrap;html=1;fillColor=none;fontColor=#666666;fontSize=17;" vertex="1" parent="RO_ATfNDEhmNTfwGVFBN-8">
          <mxGeometry y="90" width="770" height="10" as="geometry" />
        </mxCell>
        <mxCell id="RO_ATfNDEhmNTfwGVFBN-15" value="Linked Items" style="swimlane;strokeColor=#999999;swimlaneFillColor=#FFFFFF;fillColor=#ffffff;fontColor=#008CFF;fontStyle=0;childLayout=stackLayout;horizontal=1;startSize=30;horizontalStack=0;resizeParent=1;resizeParentMax=0;resizeLast=0;collapsible=0;marginBottom=0;whiteSpace=wrap;html=1;fontSize=17;align=left;" vertex="1" parent="1">
          <mxGeometry x="180" y="420" width="770" height="100" as="geometry" />
        </mxCell>
        <mxCell id="RO_ATfNDEhmNTfwGVFBN-16" value="Item 1" style="text;spacing=0;strokeColor=none;align=left;verticalAlign=middle;spacingLeft=7;spacingRight=10;overflow=hidden;points=[[0,0.5],[1,0.5]];portConstraint=eastwest;rotatable=0;whiteSpace=wrap;html=1;fillColor=none;fontColor=#666666;fontSize=17;" vertex="1" parent="RO_ATfNDEhmNTfwGVFBN-15">
          <mxGeometry y="30" width="770" height="20" as="geometry" />
        </mxCell>
        <mxCell id="RO_ATfNDEhmNTfwGVFBN-17" value="Item 2" style="text;spacing=0;strokeColor=none;align=left;verticalAlign=middle;spacingLeft=7;spacingRight=10;overflow=hidden;points=[[0,0.5],[1,0.5]];portConstraint=eastwest;rotatable=0;whiteSpace=wrap;html=1;rSize=5;fillColor=none;fontColor=#666666;fontSize=17;" vertex="1" parent="RO_ATfNDEhmNTfwGVFBN-15">
          <mxGeometry y="50" width="770" height="20" as="geometry" />
        </mxCell>
        <mxCell id="RO_ATfNDEhmNTfwGVFBN-18" value="Item 3" style="text;spacing=0;strokeColor=none;align=left;verticalAlign=middle;spacingLeft=7;spacingRight=10;overflow=hidden;points=[[0,0.5],[1,0.5]];portConstraint=eastwest;rotatable=0;whiteSpace=wrap;html=1;rSize=5;fillColor=#DDEEFF;fontColor=#666666;fontSize=17;" vertex="1" parent="RO_ATfNDEhmNTfwGVFBN-15">
          <mxGeometry y="70" width="770" height="20" as="geometry" />
        </mxCell>
        <mxCell id="RO_ATfNDEhmNTfwGVFBN-19" value="" style="text;spacing=0;strokeColor=none;align=left;verticalAlign=middle;spacingLeft=7;spacingRight=10;overflow=hidden;points=[[0,0.5],[1,0.5]];portConstraint=eastwest;rotatable=0;whiteSpace=wrap;html=1;fillColor=none;fontColor=#666666;fontSize=17;" vertex="1" parent="RO_ATfNDEhmNTfwGVFBN-15">
          <mxGeometry y="90" width="770" height="10" as="geometry" />
        </mxCell>
        <mxCell id="RO_ATfNDEhmNTfwGVFBN-20" value="xx added ticket X as blocking" style="verticalLabelPosition=bottom;shadow=0;dashed=0;align=left;html=1;verticalAlign=top;strokeWidth=1;shape=mxgraph.mockup.graphics.simpleIcon;strokeColor=#999999;spacing=-20;spacingRight=0;spacingLeft=50;" vertex="1" parent="1">
          <mxGeometry x="200" y="540" width="20" height="20" as="geometry" />
        </mxCell>
        <mxCell id="RO_ATfNDEhmNTfwGVFBN-21" value="xx added Device as related" style="verticalLabelPosition=bottom;shadow=0;dashed=0;align=left;html=1;verticalAlign=top;strokeWidth=1;shape=mxgraph.mockup.graphics.simpleIcon;strokeColor=#999999;spacing=-20;spacingRight=0;spacingLeft=50;" vertex="1" parent="1">
          <mxGeometry x="200" y="580" width="20" height="20" as="geometry" />
        </mxCell>
        <mxCell id="RO_ATfNDEhmNTfwGVFBN-22" value="" style="verticalLabelPosition=bottom;shadow=0;dashed=0;align=center;html=1;verticalAlign=top;strokeWidth=1;shape=mxgraph.mockup.navigation.scrollBar;strokeColor=#999999;barPos=20;fillColor2=#99ddff;strokeColor2=none;direction=north;" vertex="1" parent="1">
          <mxGeometry x="980" y="310" width="20" height="720" as="geometry" />
        </mxCell>
        <mxCell id="RO_ATfNDEhmNTfwGVFBN-32" value="" style="group" vertex="1" connectable="0" parent="1">
          <mxGeometry x="200" y="620" width="750" height="120" as="geometry" />
        </mxCell>
        <mxCell id="RO_ATfNDEhmNTfwGVFBN-29" value="" style="rounded=0;whiteSpace=wrap;html=1;" vertex="1" parent="RO_ATfNDEhmNTfwGVFBN-32">
          <mxGeometry width="750" height="120" as="geometry" />
        </mxCell>
        <mxCell id="RO_ATfNDEhmNTfwGVFBN-30" value="XX replied on xx month year" style="rounded=0;whiteSpace=wrap;html=1;align=left;" vertex="1" parent="RO_ATfNDEhmNTfwGVFBN-32">
          <mxGeometry width="750" height="20" as="geometry" />
        </mxCell>
        <mxCell id="RO_ATfNDEhmNTfwGVFBN-28" value="Lorem ipsum dolor sit amet, consectetur adipisicing elit, sed do eiusmod tempor incididunt ut labore et dolore magna aliqua. Ut enim ad minim veniam, quis nostrud exercitation ullamco laboris nisi ut aliquip ex ea commodo consequat. Duis aute irure dolor in reprehenderit in voluptate velit esse cillum dolore eu fugiat nulla pariatur. Excepteur sint occaecat cupidatat non proident, sunt in culpa qui officia deserunt mollit anim id est laborum.&lt;div&gt;&lt;br/&gt;&lt;/div&gt;" style="text;spacingTop=-5;whiteSpace=wrap;html=1;align=left;fontSize=12;fontFamily=Helvetica;fillColor=none;strokeColor=none;" vertex="1" parent="RO_ATfNDEhmNTfwGVFBN-32">
          <mxGeometry x="10" y="30" width="730" height="77" as="geometry" />
        </mxCell>
        <mxCell id="RO_ATfNDEhmNTfwGVFBN-33" value="" style="group" vertex="1" connectable="0" parent="1">
          <mxGeometry x="230" y="740" width="720" height="120" as="geometry" />
        </mxCell>
        <mxCell id="RO_ATfNDEhmNTfwGVFBN-34" value="" style="rounded=0;whiteSpace=wrap;html=1;" vertex="1" parent="RO_ATfNDEhmNTfwGVFBN-33">
          <mxGeometry width="720" height="120" as="geometry" />
        </mxCell>
        <mxCell id="RO_ATfNDEhmNTfwGVFBN-35" value="XX replied on xx month year" style="rounded=0;whiteSpace=wrap;html=1;align=left;" vertex="1" parent="RO_ATfNDEhmNTfwGVFBN-33">
          <mxGeometry width="720" height="20" as="geometry" />
        </mxCell>
        <mxCell id="RO_ATfNDEhmNTfwGVFBN-36" value="Lorem ipsum dolor sit amet, consectetur adipisicing elit, sed do eiusmod tempor incididunt ut labore et dolore magna aliqua. Ut enim ad minim veniam, quis nostrud exercitation ullamco laboris nisi ut aliquip ex ea commodo consequat. Duis aute irure dolor in reprehenderit in voluptate velit esse cillum dolore eu fugiat nulla pariatur. Excepteur sint occaecat cupidatat non proident, sunt in culpa qui officia deserunt mollit anim id est laborum.&lt;div&gt;&lt;br/&gt;&lt;/div&gt;" style="text;spacingTop=-5;whiteSpace=wrap;html=1;align=left;fontSize=12;fontFamily=Helvetica;fillColor=none;strokeColor=none;" vertex="1" parent="RO_ATfNDEhmNTfwGVFBN-33">
          <mxGeometry x="9.6" y="30" width="700.8" height="77" as="geometry" />
        </mxCell>
      </root>
    </mxGraphModel>
  </diagram>
</mxfile>
